<svg height="512" viewBox="0 0 510 510" width="512" xmlns="http://www.w3.org/2000/svg"><path d="M510 255c0 65.118-24.408 124.534-64.574 169.6-46.703 52.401-114.711 71.856-190.426 71.856-140.833 0-243.41-98.531-243.41-239.364C11.59 177.874 36.123 105 92.796 58.23 136.875 21.852 193.386 0 255 0c140.833 0 255 114.167 255 255z" fill="#ff5551"/><path d="M380.584 345.207l88.849-183.845a7.776 7.776 0 00-3.618-10.385l-1.656-.8 4.376-9.055c2.192-4.536 1.197-9.776-2.086-13.219a11.508 11.508 0 00-.922-.866c-.068-.058-.134-.116-.204-.172a11.62 11.62 0 00-.836-.61c-.087-.058-.169-.121-.258-.177a11.693 11.693 0 00-6.824-1.811 11.75 11.75 0 00-10.034 6.628l-3.797 7.856-.579 1.199-1.656-.8a7.775 7.775 0 00-10.385 3.618l-3.922 8.116-.399-.193c-7.25-3.505-15.969-.469-19.473 6.782-7.251 15.004-29.804 9.84-29.804-6.824V81.722c0-14.01-11.358-25.368-25.368-25.368H95.124C80.275 68.317 66.462 82.335 54.997 96.81v.029a255.637 255.637 0 00-15.056 21.149h-.037c-2.222 3.482-5.733 9.42-6.865 11.417l.019.002C12.028 166.48 0 209.33 0 255c0 44.814 11.575 86.918 31.875 123.512l.001.003c16.865 30.401 41.421 56.743 48.979 62.79l.395.316C126.79 484.038 187.858 510 255 510c75.716 0 143.717-33.005 190.415-85.409 15.084-16.927-2.542-42.63-23.904-35.035-.394.14-.789.279-1.183.417-21.011 7.353-42.971-8.404-42.971-30.664a32.39 32.39 0 013.227-14.102zM89.44 195.222c-1.666 0-3.119-.327-4.375-.882-.233-1.302-.437-2.614-.65-3.924h5.255a5.754 5.754 0 100-11.508h-6.854c-.087-.754-.178-1.508-.259-2.265 1.666-1.544 3.951-2.541 6.883-2.541 13.611.001 13.582 21.12 0 21.12zm-7.442-65.727h7.671a5.754 5.754 0 100-11.508H82.99c.067-.547.143-1.091.214-1.637 5.377-6.016 17.71-3.541 17.705 7.391-.005 11.508-14.182 13.972-18.911 5.754z" fill="#e20a62"/><path d="M329.568 56.354h-45.766v385.267h45.766c14.01 0 25.368-11.358 25.368-25.368V81.722c0-14.01-11.358-25.368-25.368-25.368z" fill="#2896ff"/><path d="M316.45 70.436h-32.648v357.762h32.648c10.845 0 19.637-8.792 19.637-19.637V90.073c0-10.845-8.791-19.637-19.637-19.637z" fill="#fff"/><path d="M295.402 56.354H32.576v385.267h262.826c14.01 0 25.368-11.357 25.368-25.368V81.722c0-14.011-11.358-25.368-25.368-25.368zM67.019 384.332c-13.612 0-13.589-21.12 0-21.12 13.612.001 13.589 21.12 0 21.12zm0-59.652c-13.612 0-13.589-21.119 0-21.119 13.612 0 13.589 21.119 0 21.119zm0-62.19c-13.612 0-13.589-21.119 0-21.119 13.612-.001 13.589 21.119 0 21.119zm0-67.268c-13.612 0-13.589-21.119 0-21.119 13.612 0 13.589 21.119 0 21.119zm1.269-60.92c-13.612 0-13.589-21.12 0-21.12 13.612 0 13.589 21.12 0 21.12z" fill="#6ee1ff"/><path d="M320.77 403.518V81.722c0-14.01-11.358-25.368-25.368-25.368H116.003v347.164z" fill="#6ee1ff"/><path d="M122.546 363.13v-92.945c0-16.877 13.682-30.559 30.559-30.559h96.362c7.04 0 12.746-5.707 12.746-12.746v-75.224c0-7.04-5.707-12.746-12.746-12.746H122.546V56.354h-89.97v385.267h262.826c14.01 0 25.368-11.358 25.368-25.368v-22.565H153.104c-16.877 0-30.558-13.681-30.558-30.558zm-55.527 21.202c-13.612 0-13.589-21.119 0-21.119 13.612 0 13.589 21.119 0 21.119zm0-59.652c-13.612 0-13.589-21.119 0-21.119 13.612 0 13.589 21.119 0 21.119zm0-62.19c-13.612 0-13.589-21.119 0-21.119 13.612-.001 13.589 21.119 0 21.119zm0-67.268c-13.612 0-13.589-21.119 0-21.119 13.612 0 13.589 21.119 0 21.119zm1.269-60.92c-13.612 0-13.589-21.119 0-21.119 13.612-.001 13.589 21.119 0 21.119z" fill="#05cdff"/><path d="M249.466 227.622H103.88c-7.04 0-12.746-5.707-12.746-12.746v-75.224c0-7.04 5.707-12.746 12.746-12.746h145.587c7.04 0 12.746 5.707 12.746 12.746v75.224c0 7.039-5.707 12.746-12.747 12.746z" fill="#fff"/><path d="M122.546 156.256H230.8v12.004H122.546zm0 30.011H230.8v12.004H122.546z" fill="#6ee1ff"/><path d="M67.249 129.495H11.59a5.754 5.754 0 110-11.508h55.659a5.754 5.754 0 110 11.508zm0 60.922H11.59a5.754 5.754 0 110-11.508h55.659a5.754 5.754 0 110 11.508zm0 66.675H11.59a5.754 5.754 0 110-11.508h55.659a5.754 5.754 0 110 11.508zm0 60.921H11.59a5.754 5.754 0 110-11.508h55.659a5.754 5.754 0 110 11.508zm0 60.921H11.59a5.754 5.754 0 110-11.508h55.659a5.754 5.754 0 110 11.508z" fill="#ffc305"/><path d="M24.594 117.988H11.836c-3.005 0-5.689 2.197-5.974 5.189a5.755 5.755 0 005.727 6.319h13.005a5.754 5.754 0 100-11.508zm0 60.921H11.836c-3.005 0-5.689 2.197-5.974 5.189a5.755 5.755 0 005.727 6.319h13.005a5.754 5.754 0 100-11.508zm0 66.675H11.836c-3.005 0-5.689 2.197-5.974 5.189a5.754 5.754 0 005.727 6.318h13.005a5.754 5.754 0 100-11.507zm0 60.921H11.836c-3.005 0-5.689 2.197-5.974 5.189a5.755 5.755 0 005.727 6.319h13.005a5.754 5.754 0 100-11.508zm0 60.922H11.836c-3.005 0-5.689 2.197-5.974 5.189a5.755 5.755 0 005.727 6.319h13.005a5.754 5.754 0 100-11.508z" fill="#f8e000"/><path d="M444.1 127.977c-8.675 0-15.708 7.033-15.708 15.708v8.254l10.128 4.895 7.593-15.712c2.177-4.503 1.213-9.701-2.013-13.145z" fill="#6ee1ff"/><path d="M428.124 151.122l7.593-15.712c1.801-3.727 5.314-6.065 9.138-6.542a11.685 11.685 0 00-4.209-3.441c-5.844-2.824-12.871-.376-15.695 5.468l-7.593 15.712 21.163 10.228.27-.558z" fill="#05cdff"/><path d="M310.86 344.636l39.052-80.796 33.342 16.116-39.05 80.796z" fill="#f8e000"/><path d="M315.735 334.785l-8.368 17.315 38.478 18.596 42.705-88.366-13.64-6.592-22.334 46.213c-6.63 13.718-23.124 19.464-36.841 12.834z" fill="#ffc305"/><path d="M305.251 406.696a2.67 2.67 0 01-2.401-3.832l8.368-17.315a2.67 2.67 0 014.806 2.323l-8.368 17.315a2.67 2.67 0 01-2.405 1.509zm119.99-217.182l-43.236 89.456-31.787-15.364 43.237-89.455z" fill="#fff"/><path d="M447.011 161.362l-15.212 31.477-38.478-18.596 15.212-31.477a7.777 7.777 0 0110.385-3.618l24.475 11.828a7.777 7.777 0 013.618 10.386z" fill="#2896ff"/><path d="M431.93 192.739l-43.237 89.455-13.352-6.453 43.237-89.456z" fill="#6ee1ff"/><path d="M313.621 383.687l2.297 10.407 29.926-23.398-29.675-14.342z" fill="#1a396b"/><path d="M307.626 390.087l8.292 4.007.251-37.74-8.802-4.254z" fill="#2896ff"/><path d="M443.089 169.478l-4.397 9.098-37.933-18.332a5.524 5.524 0 00-7.377 2.57l-34.353 71.084c-2.428 5.025-8.471 7.13-13.496 4.701l39.206-81.125c3.504-7.251 12.223-10.288 19.474-6.784z" fill="#1a396b"/></svg>