<svg height="512" viewBox="0 0 511.058 511.058" width="512" xmlns="http://www.w3.org/2000/svg"><path d="M511.058 255.529c0 47.628-13.08 92.202-35.844 130.324-44.432 74.407-126.822 108.119-219.784 108.119-140.591 0-242.355-99.984-242.355-240.575 0-79.082 24.92-147.61 81.496-194.301C138.574 22.781 194.988.966 256.496.966c140.59.001 254.562 113.972 254.562 254.563z" fill="#f8e000"/><path d="M464.131 374.035c-5.556 2.544-11.878-1.577-11.878-7.688V117.133l.15-.048c7.382-2.385 9.922-11.547 5.162-17.672a254.958 254.958 0 00-9.737-11.785 11.48 11.48 0 00-8.622-3.92h-47.507c-9.071 0-16.91 6.878-17.513 15.93-.544 8.169 4.652 15.212 11.951 17.495v277.165c0 .147-4.763.523-11.099.933-16.701 1.081-30.841-12.179-30.83-28.915.028-41.446.043-110.676.043-110.676V117.133c7.299-2.283 12.496-9.326 11.951-17.495-.603-9.051-8.442-15.929-17.513-15.929h-54.992c-9.071 0-16.91 6.878-17.513 15.929-.545 8.169 4.652 15.212 11.951 17.495v160.312c0 44.176-51.711 68.132-85.401 39.558l-1.167-.99a51.85 51.85 0 01-18.298-39.536V117.065c6.948-2.173 11.99-8.659 11.99-16.323 0-9.445-7.657-17.102-17.102-17.102 0 0-26.105.014-43.17.04-7.411.011-12.74-7.128-10.62-14.229l.148-.493c3.14-10.439-9.11-18.591-17.599-11.753C38.428 104.322 1.207 176.77 1.944 257.894c1.272 140.037 114.51 252.198 254.553 252.197 92.962-.001 174.275-49.837 218.705-124.245 4.215-7.059-3.238-15.411-10.708-11.977l-.363.166z" fill="#ffc305"/><path d="M192.474 346.147l-71.582-71.582-13.839 13.839v57.743z" fill="#fff"/><path d="M108.07 105.578h45.881v239.425H108.07z" fill="#fff"/><path d="M95.22 345.003h17.245V105.578H87.834v202.045l-79.26 79.26c-18.317 18.317-5.344 49.636 20.56 49.636H73.9c-25.904 0-38.877-31.319-20.56-49.636z" fill="#faf58c"/><path d="M148.839 90.886h-38.207c-9.445 0-17.102 7.657-17.102 17.102s7.657 17.102 17.102 17.102h38.207c9.445 0 17.102-7.657 17.102-17.102 0-9.446-7.657-17.102-17.102-17.102z" fill="#fff"/><path d="M95.029 107.987c0-9.445 7.657-17.102 17.102-17.102H92.946c-9.445 0-17.102 7.657-17.102 17.102s7.657 17.102 17.102 17.102h19.185c-9.445 0-17.102-7.657-17.102-17.102z" fill="#faf58c"/><path d="M235.126 425.93c8.734-10.777 9.637-27.495-1.916-39.047l-46.61-46.61H71.219v85.657z" fill="#6ee1ff"/><path d="M105.958 419.326c-25.904 0-38.877-31.319-20.56-49.636l29.417-29.417H55.184l-46.61 46.61c-18.317 18.317-5.344 49.636 20.56 49.636H212.65c12.624 0 22.162-7.446 26.519-17.193z" fill="#05cdff"/><g fill="#6ee1ff"><circle cx="143.417" cy="348.679" r="22.524"/><circle cx="117.418" cy="287.373" r="12.808"/><circle cx="129.95" cy="210.333" r="9.057"/></g><path d="M281.989 105.646c0 .045.007.09.007.135v327.318a33.024 33.024 0 009.878 1.502c18.258 0 33.058-14.801 33.058-33.058V105.646z" fill="#fff"/><path d="M285.044 105.646h-26.228v295.897c0 15.914 11.249 29.19 26.228 32.338z" fill="#6ee1ff"/><path d="M286.73 262.885v171.316c1.677.262 3.395.401 5.145.401 18.258 0 33.058-14.801 33.058-33.058V262.885z" fill="#ff8500"/><path d="M291.875 399.312V262.885h-33.058v138.658c0 18.258 14.801 33.058 33.058 33.058a32.904 32.904 0 0018.457-5.629c-10.933-5.392-18.457-16.645-18.457-29.66z" fill="#fa690f"/><path d="M319.822 90.953h-36.95c-9.445 0-17.102 7.657-17.102 17.102s7.657 17.102 17.102 17.102h36.95c9.445 0 17.102-7.657 17.102-17.102-.001-9.445-7.657-17.102-17.102-17.102z" fill="#fff"/><path d="M268.143 108.055c0-9.445 7.657-17.102 17.102-17.102h-21.317c-9.445 0-17.102 7.657-17.102 17.102s7.657 17.102 17.102 17.102h21.317c-9.445 0-17.102-7.657-17.102-17.102z" fill="#6ee1ff"/><path d="M388.228 105.646c.045.494.081.99.081 1.487v325.382a32.971 32.971 0 0011.568 2.086c18.258 0 33.058-14.801 33.058-33.058V105.646z" fill="#fff"/><path d="M392.032 105.646h-25.213v295.897c0 15.554 10.744 28.591 25.213 32.114z" fill="#6ee1ff"/><path d="M397.098 210.147v224.329c.917.076 1.842.125 2.779.125 18.258 0 33.058-14.801 33.058-33.058V210.147z" fill="#20b7a1"/><path d="M399.877 398.47V210.147h-33.058v191.396c0 18.258 14.801 33.058 33.058 33.058a32.892 32.892 0 0019.168-6.133c-11.316-5.248-19.168-16.703-19.168-29.998z" fill="#269ab1"/><path d="M427.824 90.953h-37.288c-9.445 0-17.102 7.657-17.102 17.102s7.657 17.102 17.102 17.102h37.288c9.445 0 17.102-7.657 17.102-17.102-.001-9.445-7.657-17.102-17.102-17.102z" fill="#fff"/><path d="M374.014 108.055c0-9.445 7.657-17.102 17.102-17.102H371.93c-9.445 0-17.102 7.657-17.102 17.102s7.657 17.102 17.102 17.102h19.185c-9.445 0-17.101-7.657-17.101-17.102z" fill="#6ee1ff"/></svg>