<svg height="512" viewBox="0 0 510.851 510.851" width="512" xmlns="http://www.w3.org/2000/svg"><path d="M480.834 250.9c0 136.769-96.423 222.744-233.192 222.744S12.728 385.723 12.728 248.954c0-44.823-.82-85.926 20.006-122.195C75.453 52.36 155.696 2.251 247.642 2.251c79.842 0 150.858 37.784 196.144 96.447 32.289 41.827 37.048 95.275 37.048 152.202z" fill="#6ee1ff"/><path d="M495.283 249.893c0-46.668-12.917-90.315-35.359-127.577-15.955-8.173-33.945-12.915-52.996-13.23V90.144H362.34v237.508c0 18.508-15.763 33.17-34.212 31.688-26.958-2.165-49.863-7.089-69.185-13.44-34.299-11.273-26.139-61.958 9.965-61.958 11.96 0 21.655-9.696 21.655-21.656V66.144c0-11.926-14.419-17.899-22.853-9.466L160.656 163.733c-21.252 21.252-57.549 8.518-61.043-21.334-.064-.547-.126-1.094-.187-1.641-3.791-34.356-49.47-43.966-66.685-13.994C11.602 163.57-.353 206.321.008 251.895c1.08 136.56 113.623 247.002 250.181 245.626 112.22-1.131 206.563-76.905 235.757-180.044l-.028.019c6.087-21.491 9.365-44.162 9.365-67.603zm-250.671-105.13v93.228h-93.23zm162.316 36.048c0-14.219 14.594-23.95 27.609-18.224 25.979 11.431 44.165 37.407 44.165 67.564 0 40.014-32.016 72.668-71.773 73.749V180.811z" fill="#05cdff"/><path d="M283.219 264.417H33.102L283.219 14.301zm-139.181-45.951h93.23v-93.228z" fill="#2d56a1"/><path d="M64.661 250.9h4.345v13.518h-4.345zm23.89 0h4.345v13.518h-4.345zm23.889 0h4.345v13.518h-4.345zm23.89 0h4.345v13.518h-4.345zm23.889 0h4.345v13.518h-4.345zm23.89 0h4.345v13.518h-4.345zm23.889 0h4.345v13.518h-4.345zm23.891 0h4.345v13.518h-4.345zm23.888 0h4.345v13.518h-4.345zm13.815-11.362h13.518v4.345h-13.518zm0-23.889h13.518v4.345h-13.518zm0-23.89h13.518v4.345h-13.518zm0-23.889h13.518v4.345h-13.518zm0-23.89h13.518v4.345h-13.518zm0-23.889h13.518v4.345h-13.518zm0-23.891h13.518v4.345h-13.518zm0-23.888h13.518v4.345h-13.518zm0-23.891h13.518v4.345h-13.518z" fill="#5ab4ff"/><path d="M66.833 286.887l-13.597 1.869-20.884 58.537L484.497 508.6l20.884-58.537-67.1-34.84zm411.564 186.292c-8.803-3.14-3.916-16.793 4.873-13.658 8.803 3.141 3.915 16.793-4.873 13.658z" fill="#f8e000"/><path d="M58.718 273.472l452.214 161.3-5.47 15.336-452.215-161.3z" fill="#ffc305"/><path d="M64.402 310.7l11.154-31.271 3.908 1.393-11.154 31.272zm24.095-1.402l7.99-22.404 3.908 1.394-7.991 22.404zm17.77 16.332l11.155-31.272 3.907 1.394-11.154 31.272zm24.096-1.402l7.991-22.404 3.907 1.394-7.991 22.404zm17.769 16.332l11.154-31.27 3.908 1.393-11.154 31.271zm24.095-1.4l7.992-22.404 3.907 1.393-7.991 22.405zm17.77 16.33l11.154-31.271 3.908 1.394-11.154 31.271zm24.096-1.4l7.99-22.405 3.908 1.394L218 355.484zm17.77 16.332l11.154-31.272 3.908 1.394-11.155 31.271zm24.095-1.402l7.991-22.405 3.907 1.394-7.991 22.404zm17.77 16.331l11.154-31.271 3.908 1.393-11.154 31.272zm24.094-1.401l7.992-22.404 3.907 1.394-7.991 22.404zm17.771 16.331l11.154-31.271 3.908 1.393-11.154 31.272zm24.094-1.4l7.992-22.404 3.907 1.393-7.991 22.405zm17.771 16.331l11.154-31.272 3.908 1.394-11.155 31.272zm24.094-1.402l7.992-22.404 3.907 1.394-7.991 22.405zm17.77 16.333l11.154-31.272 3.907 1.394-11.154 31.271zm24.095-1.401l7.992-22.405 3.907 1.394-7.991 22.404zm17.771 16.33l11.154-31.271 3.908 1.393-11.155 31.272zm24.094-1.401l7.992-22.404 3.907 1.394-7.991 22.404z" fill="#faf58c"/><path d="M443.773 98.709c-14.249-5.906-29.857-9.173-46.215-9.173v47.291c40.693 0 73.8 33.107 73.8 73.8s-33.107 73.8-73.8 73.8v47.291c38.572 0 72.99-18.129 95.18-46.313a249.614 249.614 0 002.545-35.511c0-56.928-19.221-109.359-51.51-151.185z" fill="#ff5551"/><path d="M362.34 70.619h37.244v280.015H362.34z" fill="#ff5551"/><path d="M354.996 70.619h12.806v280.015h-12.806z" fill="#e20a62"/><path d="M354.996 81.745h20.115v4.053h-20.115zm0 15.857h20.115v4.053h-20.115zm0 15.857h20.115v4.053h-20.115zm0 15.857h20.115v4.053h-20.115zm0 15.856h20.115v4.053h-20.115zm0 15.857h20.115v4.053h-20.115zm0 15.857h20.115v4.053h-20.115zm0 15.857h20.115v4.053h-20.115zm0 15.856h20.115v4.053h-20.115zm0 15.857h20.115v4.053h-20.115zm0 15.857h20.115v4.053h-20.115zm0 15.857h20.115v4.053h-20.115zm0 15.857h20.115v4.053h-20.115zm0 15.857h20.115v4.053h-20.115zm0 15.856h20.115v4.053h-20.115zm0 15.857h20.115v4.053h-20.115zm0 15.857h20.115v4.053h-20.115z" fill="#e20a62"/></svg>