<svg height="512" viewBox="0 0 511.04 511.04" width="512" xmlns="http://www.w3.org/2000/svg"><path d="M498.494 248.969c0 25.536-3.845 50.174-10.986 73.368-31.314 101.692-126.017 158.416-237.983 158.416-137.502 0-233.58-96.367-233.58-233.868 0-79.364 21.745-147.97 79.586-193.56C137.903 19.927 191.387 0 249.525 0c137.502 0 248.969 111.467 248.969 248.969z" fill="#6ee1ff"/><g fill="#05cdff"><path d="M484.987 330.029l-.038.023.055-.159c2.534-7.377-4.376-14.529-11.86-12.33-10.933 3.212-30.605 9.082-67.842 19.632L328.62 359.32c-10.038 2.896-20.663 3.261-30.836.879a247.038 247.038 0 01-21.64-6.118c-24.611-8.185-37.898-34.839-30.087-59.572 2.133-6.755-2.91-13.637-9.995-13.637h-39.66c-20.13 0-39.032-10.009-50.06-26.85-.251-.383-.5-.767-.749-1.151-13.835-21.384 14.988-44.535 32.997-26.526 6.591 6.591 15.249 9.886 23.906 9.886 9.029 0 18.057-3.584 24.742-10.752a33.85 33.85 0 009.05-21.986c.285-9.422-3.253-18.327-9.886-24.96l-60.424-60.424-7.371 7.371 60.424 60.424c9.329 9.329 9.113 24.645-.65 33.695-9.286 8.609-23.872 7.922-32.826-1.032l-66.597-66.597c-8.327-8.327-13.005-19.595-13.141-31.371a245.397 245.397 0 01.134-11.351c.183-5.262 6.524-7.978 10.274-4.282l.083.082 83.557 83.557c1.571 1.571 2.437 3.66 2.437 5.881s-.865 4.31-2.437 5.881a8.263 8.263 0 01-5.881 2.436 8.257 8.257 0 01-5.881-2.437l-51.695-51.694-7.371 7.371 51.695 51.694c4.427 4.428 10.68 6.368 17.062 5.117a17.834 17.834 0 006.579-2.751c5.75-3.911 8.805-10.295 8.299-17.066-.343-4.593-2.496-8.865-5.753-12.121l-83.24-83.24c-.325-.325-.657-.64-.995-.944-9.208-8.294-13.704-20.638-11.039-32.74l.119-.535c2.071-9.303-8.74-16.024-16.225-10.124C37.696 98.922.556 169.605.556 248.969c0 72.386 30.902 137.545 80.22 183.037 4.719 3.971 24.611 23.642 59.435 40.698 33.001 16.154 70.095 25.235 109.315 25.235 77.461 0 146.646-35.385 192.306-90.863l.029-.008c18.267-22.202 33.238-48.31 43.126-77.039z"/><path d="M304.078 210.977c18.642 0 33.808-15.166 33.808-33.808V91.717h-10.424v85.451c0 12.894-10.49 23.384-23.384 23.384s-23.384-10.49-23.384-23.384V47.359c0-8.631 7.022-15.653 15.653-15.653s15.652 7.022 15.652 15.653v118.168c0 4.586-3.731 8.318-8.318 8.318s-8.318-3.731-8.318-8.318V92.42H284.94v73.107c0 10.334 8.408 18.742 18.742 18.742s18.742-8.408 18.742-18.742V47.359c0-14.379-11.698-26.077-26.076-26.077S270.27 32.98 270.27 47.359v129.81c0 18.642 15.166 33.808 33.808 33.808zm0 94.303h85.451v-10.424h-85.451c-12.894 0-23.384-10.49-23.384-23.384 0-12.893 10.49-23.383 23.384-23.383h129.81c8.631 0 15.653 7.022 15.653 15.652 0 8.631-7.022 15.653-15.653 15.653H315.72c-4.586 0-8.318-3.731-8.318-8.318s3.731-8.318 8.318-8.318h73.107v-10.424H315.72c-10.334 0-18.742 8.408-18.742 18.742s8.408 18.742 18.742 18.742h118.168c14.379 0 26.077-11.698 26.077-26.077s-11.698-26.076-26.077-26.076h-129.81c-18.642 0-33.808 15.166-33.808 33.808 0 18.641 15.166 33.807 33.808 33.807z"/></g><path d="M75.987 436.892l322.695-93.014 16.752 58.119L92.74 495.01z" fill="#f8e000"/><path d="M464.593 373.563l-52.867 15.239-13.046-45.26 52.868-15.238z" fill="#ff8500"/><path d="M472.963 402.542l-52.867 15.239-10.702-37.128 52.867-15.238z" fill="#fa690f"/><path d="M508.355 369.893l-10.865-37.657c-2.505-8.682-11.574-13.689-20.256-11.184l-25.691 7.413 11.953 41.429h44.859z" fill="#ff5551"/><path d="M509.838 375.035l-9.768-33.855c.587 7.576-4.193 14.779-11.78 16.968l-26.038 7.436 10.71 37.119 25.691-7.413c8.683-2.504 13.69-11.573 11.185-20.255z" fill="#e20a62"/><path d="M91.164 489.54l322.694-93.014 6.228 21.608-322.694 93.014z" fill="#ffc305"/><path d="M54.67 503.421l42.806 7.619-21.419-74.239-21.387 19.446z" fill="#fff"/><path d="M55.734 455.279L11.281 495.7l55.579-1.858z" fill="#ff8500"/><path d="M66.86 493.842L11.281 495.7l59.153 10.526z" fill="#fa690f"/><path d="M140.538 358.224H40.857l22.369-70.833h77.312z" fill="#ff5551"/><path d="M95.257 314.226l8.474-26.835H63.226l-22.368 70.833h99.681v-16.22h-24.922c-14.431 0-24.705-14.018-20.36-27.778z" fill="#e20a62"/><path d="M140.538 358.224h80.841l22.369-70.833h-103.21z" fill="#2d56a1"/><path d="M179.551 314.747v-27.356h-39.013v70.833h80.841l5.122-16.22h-19.693c-15.053 0-27.257-12.204-27.257-27.257z" fill="#1a396b"/><path d="M195.881 242.75c-8.658 0-17.315-3.295-23.906-9.886l-91.789-91.789c-10.167-10.168-10.167-26.711 0-36.878 10.168-10.167 26.711-10.166 36.878 0l83.557 83.557c3.54 3.54 5.49 8.247 5.49 13.253s-1.95 9.713-5.49 13.252c-3.539 3.54-8.246 5.49-13.252 5.49s-9.713-1.95-13.253-5.49l-51.695-51.694 7.371-7.371 51.695 51.694c1.571 1.571 3.66 2.437 5.881 2.437s4.31-.865 5.881-2.436 2.437-3.66 2.437-5.881a8.257 8.257 0 00-2.437-5.881l-83.557-83.557c-6.102-6.102-16.032-6.103-22.136 0-6.103 6.102-6.103 16.033 0 22.136l91.789 91.789c9.117 9.117 23.952 9.117 33.07 0s9.118-23.952 0-33.07L151.992 132l7.371-7.371 60.424 60.424c6.385 6.385 9.902 14.875 9.902 23.906s-3.517 17.521-9.902 23.906c-6.591 6.59-15.248 9.885-23.906 9.885z" fill="#f8e000"/><path d="M83.871 142.601a5.2 5.2 0 01-3.686-1.526c-10.167-10.168-10.167-26.711 0-36.878a5.213 5.213 0 017.371 7.371c-6.103 6.102-6.103 16.033 0 22.136a5.213 5.213 0 01-3.685 8.897z" fill="#faf58c"/><path d="M297.463 217.496c-18.642 0-33.808-15.166-33.808-33.808V53.878c0-14.379 11.698-26.077 26.077-26.077s26.076 11.698 26.076 26.077v118.168c0 10.334-8.408 18.742-18.742 18.742s-18.742-8.408-18.742-18.742V98.939h10.424v73.107c0 4.586 3.731 8.318 8.318 8.318s8.318-3.731 8.318-8.318V53.878c0-8.631-7.022-15.653-15.652-15.653-8.631 0-15.653 7.022-15.653 15.653v129.81c0 12.894 10.49 23.384 23.384 23.384s23.384-10.49 23.384-23.384V98.236h10.424v85.451c0 18.643-15.166 33.809-33.808 33.809z" fill="#2d56a1"/><path d="M268.867 59.09a5.213 5.213 0 01-5.212-5.212c0-14.379 11.698-26.077 26.077-26.077a5.213 5.213 0 010 10.424c-8.631 0-15.653 7.022-15.653 15.653a5.213 5.213 0 01-5.212 5.212z" fill="#5ab4ff"/><path d="M382.914 311.799h-85.451c-18.642 0-33.808-15.166-33.808-33.808s15.166-33.808 33.808-33.808h129.81c14.379 0 26.077 11.698 26.077 26.076 0 14.379-11.698 26.077-26.077 26.077H309.104c-10.334 0-18.742-8.408-18.742-18.742s8.408-18.742 18.742-18.742h73.107v10.424h-73.107c-4.586 0-8.318 3.731-8.318 8.318s3.731 8.318 8.318 8.318h118.168c8.631 0 15.653-7.022 15.653-15.653s-7.022-15.652-15.653-15.652h-129.81c-12.894 0-23.384 10.49-23.384 23.383 0 12.894 10.49 23.384 23.384 23.384h85.451v10.425z" fill="#ff5551"/><path d="M448.137 275.472a5.213 5.213 0 01-5.212-5.212c0-8.631-7.022-15.652-15.653-15.652a5.213 5.213 0 010-10.424c14.379 0 26.077 11.698 26.077 26.076a5.211 5.211 0 01-5.212 5.212z" fill="#f88"/></svg>