<svg height="512" viewBox="0 0 509.791 509.791" width="512" xmlns="http://www.w3.org/2000/svg"><path d="M509.791 254.896c0 31.334-5.654 61.347-15.997 89.075-36.126 96.848-130.525 150.768-239.966 150.768-140.775 0-239.14-99.068-239.14-239.843 0-78.934 21.191-149.488 77.53-196.243C136.358 22.022 193.055 0 254.896 0 395.67 0 509.791 114.121 509.791 254.896z" fill="#82cd64"/><path d="M489.197 341.098c-.035-25.446-.558-102.468-.896-150.094-.155-21.763-17.837-39.317-39.601-39.323l-73.702-.019c-23.409-.006-43.612-16.404-48.429-39.311l-9.246-43.971c-4.884-23.227-27.665-38.092-50.891-33.208L104.607 69.2c-3.319.698-6.186-2.388-5.247-5.647l.056-.196c1.223-4.248-3.786-7.516-7.188-4.693C35.879 105.425-.012 175.984 0 254.934c.021 140.511 114.686 255.02 255.197 254.857 54.384-.063 104.768-17.168 146.122-46.25h.011c37.647-26.459 68.747-63.634 87.866-108.14v-.045a257.49 257.49 0 004.578-11.393c.505-1.351-1.029-2.55-2.208-1.718l-.062.044c-.967.682-2.305-.007-2.307-1.191z" fill="#20b7a1"/><path d="M294.934 43.858L66.817 91.825l64.175 305.198 228.117-47.967zm-206.96 84.864a7.649 7.649 0 1114.97-3.148 7.649 7.649 0 01-14.97 3.148zm4.726 22.476a7.649 7.649 0 1114.97-3.148 7.649 7.649 0 01-14.97 3.148zm9.325 44.346a7.649 7.649 0 1114.97-3.148 7.649 7.649 0 01-14.97 3.148zm4.726 22.475a7.649 7.649 0 1114.97-3.148 7.649 7.649 0 01-14.97 3.148zm9.325 44.346a7.649 7.649 0 1114.97-3.148 7.649 7.649 0 01-14.97 3.148zm4.726 22.475a7.649 7.649 0 1114.97-3.148 7.649 7.649 0 01-14.97 3.148zm9.325 44.346a7.649 7.649 0 1114.97-3.148 7.649 7.649 0 01-14.97 3.148zm13.785 28.387a7.649 7.649 0 11-3.148-14.97 7.649 7.649 0 013.148 14.97z" fill="#fff"/><path d="M71.375 113.266l228.211-48.02.71 3.373-228.211 48.02zm21.935 21.223a7.674 7.674 0 01-3.919-2.696l-13.57 2.853.138.655.571 2.717zm210.628-47.811l-201.054 42.277a7.676 7.676 0 01-2.501 4.047L304.647 90.05zm4.497 21.386l-200.629 42.187a7.64 7.64 0 01-1.406 3.816l202.744-42.632zm-212.148 48.13a7.64 7.64 0 01-2.824-2.927l-13.145 2.764.709 3.372zM84.89 177.445l228.211-48.02.71 3.372-228.21 48.02zm19.087 21.795a7.59 7.59 0 01-1.806-3.141l-12.86 2.704.709 3.372zm13.108-6.277a7.594 7.594 0 01-.388 3.602l201.441-42.358-.329-1.563-.38-1.809zm204.841-20.74l-200.342 42.126c.049.172.1.344.138.522a7.608 7.608 0 01.035 2.963l200.878-42.239zm-214.014 48.522a7.63 7.63 0 01-1.161-2.726c-.037-.178-.06-.356-.084-.533l-12.858 2.704.519 2.471.189.9zm-9.506 20.878l228.212-48.02.71 3.373-228.212 48.02zm32.64 17.594c.091.434.135.866.151 1.294l200.431-42.145-.709-3.372L130.3 257.179c.335.627.593 1.308.746 2.038zm-14.587 4.393a7.752 7.752 0 01-.383-1.245 7.613 7.613 0 01-.137-2.166l-13.136 2.762.709 3.372zm17.92 15.044a7.614 7.614 0 011.393 3.039c.013.061.018.122.029.183l200.325-42.123-.273-1.297-.436-2.074zm-13.53 6.365c-.014-.06-.034-.118-.047-.179a7.612 7.612 0 01.051-3.342l-13.553 2.85.709 3.372zm-8.929 20.783l228.21-48.02.71 3.373-228.21 48.02zm32.749 18.871l200.449-42.15-.709-3.372-202.028 42.481a7.625 7.625 0 012.288 3.041zm-14.701 3.092a7.614 7.614 0 01.869-3.703l-14.544 3.058.709 3.372zm18.902 18.357l200.746-42.212-.709-3.372-203.144 42.716a7.651 7.651 0 013.107 2.868zm-12.42-.909l-15.66 3.293.709 3.372 13.262-2.789a7.65 7.65 0 011.689-3.876zm-11.016 24.767l228.211-48.02.71 3.373-228.211 48.02z" fill="#6ee1ff"/><path d="M106.55 83.487l3.373-.71L174.17 388.1l-3.373.71z" fill="#ff5551"/><path d="M242.595 169.16l-.079 311.872 233.106.059.079-311.872zm20.691 275.93a7.649 7.649 0 11.004-15.298 7.649 7.649 0 01-.004 15.298zm.006-22.967a7.649 7.649 0 11.004-15.298 7.649 7.649 0 01-.004 15.298zm.011-45.316a7.649 7.649 0 117.651-7.647 7.648 7.648 0 01-7.651 7.647zm.006-22.966a7.649 7.649 0 11.004-15.298 7.649 7.649 0 01-.004 15.298zm.012-45.316a7.649 7.649 0 11.004-15.298 7.649 7.649 0 01-.004 15.298zm.005-22.967a7.649 7.649 0 11.004-15.298 7.649 7.649 0 01-.004 15.298zm.012-45.316a7.649 7.649 0 11.004-15.298 7.649 7.649 0 01-.004 15.298zm.006-22.966a7.649 7.649 0 11.004-15.298 7.649 7.649 0 01-.004 15.298z" fill="#faf58c"/><path d="M242.551 344.161l-.001 2.187v1.014l13.212.003a7.72 7.72 0 01-.099-1.176c0-.702.103-1.38.28-2.026zm-.006 25.055l13.115.003-.003-.063c0-1.12.247-2.18.68-3.139l-13.791-.004v3.203zm-.012 42.682v1.026l13.269.003a7.602 7.602 0 011.503-3.201l-14.771-.004zm20.759 10.225a7.698 7.698 0 01-1.762-.212l-.002 8.093a7.636 7.636 0 011.762-.212c.493 0 .973.051 1.44.14l.002-7.949c-.467.09-.947.14-1.44.14zm-20.764 12.654l13.596.003a7.65 7.65 0 012.254-3.201l-15.85-.004v.806zm19.019-81.149l-.002 8.093a7.643 7.643 0 011.762-.212c.493 0 .973.051 1.44.14l.002-7.949a7.535 7.535 0 01-3.202-.072zm-18.969-115.534l15.46.004a7.64 7.64 0 01-1.992-3.202l-13.467-.003v3.201zm.005-22.844v.991l16.939.004a7.671 7.671 0 01-3.013-3.202l-13.925-.004zm-.022 88.406l13.642.003a7.623 7.623 0 01-.53-2.785c0-.141.014-.278.021-.417l-13.133-.003v.829z" fill="#f8e000"/><path d="M475.695 194.447v-3.202l-233.105-.059v3.202l18.998.005-.002 7.798a7.643 7.643 0 011.762-.212c.493 0 .973.051 1.44.14l.002-7.725 18.653.005-.005 18.652-13.257-.003a7.674 7.674 0 01-3.015 3.201l16.271.004-.005 18.652-12.799-.003a7.651 7.651 0 01-1.994 3.201l14.792.004-.005 18.652-18.653-.005.004-16.649c-.467.089-.947.14-1.44.139a7.698 7.698 0 01-1.762-.212l-.004 16.721-18.999-.005v3.202l18.998.005-.003 10.52a7.636 7.636 0 011.762-.212c.493 0 .973.051 1.44.14l.003-10.447 18.653.005-.005 18.652-12.479-.003a7.574 7.574 0 01-1.042 3.201l13.52.003-.005 18.652-12.465-.003c.007.139.021.276.021.417 0 .984-.193 1.921-.531 2.785l12.974.003-.005 18.652-18.653-.005.004-13.928c-.467.089-.947.14-1.44.14a7.698 7.698 0 01-1.762-.212l-.004 14-18.999-.005v3.202l18.998.005-.003 13.241a7.643 7.643 0 011.762-.212c.493 0 .973.051 1.44.14l.003-13.169 18.653.005-.005 18.652-12.724-.003c.177.646.279 1.323.279 2.026 0 .401-.04.792-.1 1.176l12.543.003-.005 18.652-13.123-.003c.432.959.678 2.019.678 3.139l-.003.063 12.447.003-.005 18.652-18.653-.005.003-11.206c-.467.089-.947.14-1.44.14a7.643 7.643 0 01-1.762-.212l-.003 11.278-18.999-.005v3.202l18.998.005-.004 15.963a7.63 7.63 0 011.762-.212c.493 0 .973.051 1.44.14l.004-15.89 18.653.005-.005 18.652-14.102-.004a7.602 7.602 0 011.501 3.202l12.6.003-.005 18.652-15.181-.004a7.657 7.657 0 012.252 3.202l12.928.003-.005 18.652-18.653-.005.002-8.485c-.467.089-.947.14-1.44.14a7.643 7.643 0 01-1.762-.212l-.002 8.557-18.999-.005-.001 3.202 233.106.059v-3.201l-14.221-.004.005-18.652 14.221.004.001-2.907v-.294l-14.221-.004.005-18.652 14.222.004v-3.202l-14.221-.004.005-18.652 14.222.004v-3.201l-14.221-.004.005-18.652 14.221.004.001-2.896v-.306l-14.221-.004.005-18.652 14.222.004v-3.201l-14.221-.004.005-18.652 14.222.004v-3.202l-14.221-.004.005-18.652 14.222.004.001-2.884v-.318l-14.221-.004.005-18.652 14.222.004v-3.202l-14.221-.004.005-18.652 14.222.004v-3.202l-14.221-.004.005-18.652 14.222.004.001-2.873v-.329l-14.221-.004.005-18.652 14.222.004v-3.202l-14.221-.004.005-18.652zM305.23 453.445l-18.652-.005.005-18.652 18.652.005zm.005-21.853l-18.652-.005.005-18.652 18.652.005zm.006-21.854l-18.652-.005.005-18.652 18.652.005zm.005-21.854l-18.652-.005.005-18.652 18.652.005zm.006-21.854l-18.652-.005.005-18.652 18.652.005zm.006-21.853l-18.652-.005.005-18.652 18.652.005zm.005-21.854l-18.652-.005.005-18.652 18.652.005zm.006-21.853l-18.652-.005.005-18.652 18.652.005zm.005-21.854l-18.652-.005.005-18.652 18.652.005zm.006-21.854l-18.652-.005.005-18.652 18.652.005zm.005-21.853l-18.652-.005.005-18.652 18.652.005zm.006-21.854l-18.652-.005.005-18.652 18.652.005zm21.792 240.396l-18.652-.005.005-18.652 18.652.005zm.006-21.854l-18.652-.005.005-18.652 18.652.005zm.005-21.854l-18.652-.005.005-18.652 18.652.005zm.006-21.853l-18.652-.005.005-18.652 18.652.005zm.005-21.854l-18.652-.005.005-18.652 18.652.005zm.006-21.853l-18.652-.005.005-18.652 18.652.005zm.006-21.854l-18.652-.005.005-18.652 18.652.005zm.005-21.854l-18.652-.005.005-18.652 18.652.005zm.006-21.853l-18.652-.005.005-18.652 18.652.005zm.005-21.854l-18.652-.005.005-18.652 18.652.005zm.006-21.854l-18.652-.005.005-18.652 18.652.005zm.005-21.854l-18.652-.005.005-18.652 18.652.005zm21.793 240.397l-18.652-.005.005-18.652 18.652.005zm.005-21.854l-18.652-.005.005-18.652 18.652.005zm.006-21.854l-18.652-.005.005-18.652 18.652.005zm.005-21.854l-18.652-.005.005-18.652 18.652.005zm.006-21.853l-18.652-.005.005-18.652 18.652.005zm.006-21.854l-18.652-.005.005-18.652 18.652.005zm.005-21.854l-18.652-.005.005-18.652 18.652.005zm.006-21.853l-18.652-.005.005-18.652 18.652.005zm.006-21.854l-18.652-.005.005-18.652 18.652.005zm.005-21.854l-18.653-.005.005-18.652 18.653.005zm.006-21.853l-18.652-.005.005-18.652 18.653.005zm.006-21.854l-18.653-.005.005-18.652 18.653.005zm21.792 240.396l-18.653-.005.005-18.652 18.653.005zm.006-21.854l-18.653-.005.005-18.652 18.652.005zm.005-21.854l-18.652-.005.005-18.652 18.653.005zm.006-21.853l-18.652-.005.005-18.652 18.652.005zm.005-21.854l-18.652-.005.005-18.652 18.652.005zm.006-21.853l-18.652-.005.005-18.652 18.652.005zm.005-21.854l-18.652-.005.005-18.652 18.652.005zm.006-21.854l-18.652-.005.005-18.652 18.652.005zm.005-21.853l-18.652-.005.005-18.652 18.652.005zm.006-21.854l-18.652-.005.005-18.652 18.652.005zm.006-21.854l-18.652-.005.005-18.652 18.652.005zm.005-21.854l-18.652-.005.005-18.652 18.652.005zm21.792 240.397l-18.652-.005.005-18.652 18.652.005zm.006-21.854l-18.652-.005.005-18.652 18.652.005zm.005-21.854l-18.652-.005.005-18.652 18.652.005zm.006-21.853l-18.652-.005.005-18.652 18.652.005zm.006-21.854l-18.652-.005.005-18.652 18.652.005zm.005-21.854l-18.652-.005.005-18.652 18.652.005zm.006-21.854l-18.652-.005.005-18.652 18.652.005zm.005-21.853l-18.652-.005.005-18.652 18.652.005zm.006-21.854l-18.652-.005.005-18.652 18.652.005zm.005-21.854l-18.652-.005.005-18.652 18.652.005zm.006-21.853l-18.652-.005.005-18.652 18.652.005zm.005-21.854l-18.652-.005.005-18.652 18.652.005zm21.793 240.396l-18.652-.005.005-18.652 18.652.005zm.005-21.854l-18.652-.005.005-18.652 18.652.005zm.006-21.853l-18.652-.005.005-18.652 18.652.005zm.005-21.854l-18.652-.005.005-18.652 18.652.005zm.006-21.854l-18.652-.005.005-18.652 18.652.005zm.005-21.853l-18.652-.005.005-18.652 18.652.005zm.006-21.854l-18.652-.005.005-18.652 18.652.005zm.006-21.854l-18.652-.005.005-18.652 18.652.005zm.005-21.853l-18.652-.005.005-18.652 18.652.005zm.006-21.854l-18.652-.005.005-18.652 18.652.005zm.005-21.854l-18.652-.005.005-18.652 18.652.005zm.006-21.853l-18.652-.005.005-18.652 18.652.005zm21.793 240.396l-18.653-.005.005-18.652 18.653.005zm.006-21.854l-18.653-.005.005-18.652 18.653.005zm.005-21.854l-18.653-.005.005-18.652 18.653.005zm.006-21.853l-18.653-.005.005-18.652 18.653.005zm.005-21.854l-18.653-.005.005-18.652 18.653.005zm.006-21.854l-18.653-.005.005-18.652 18.653.005zm.005-21.853l-18.653-.005.005-18.652 18.653.005zm.006-21.854l-18.653-.005.005-18.652 18.653.005zm.006-21.854l-18.653-.005.005-18.652 18.653.005zm.005-21.854l-18.653-.005.005-18.652 18.653.005zm.006-21.853l-18.653-.005.005-18.652 18.653.005zm.005-21.854l-18.653-.005.005-18.652 18.653.005zm21.793 240.396l-18.652-.005.005-18.652 18.652.005zm.005-21.853l-18.652-.005.005-18.652 18.652.005zm.006-21.854l-18.652-.005.005-18.652 18.652.005zm.005-21.854l-18.652-.005.005-18.652 18.652.005zm.006-21.854l-18.652-.005.005-18.652 18.652.005zm.005-21.853l-18.652-.005.005-18.652 18.652.005zm.006-21.854l-18.652-.005.005-18.652 18.652.005zm.005-21.854l-18.652-.005.005-18.652 18.652.005zm.006-21.853l-18.652-.005.005-18.652 18.652.005zm.005-21.854l-18.652-.005.005-18.652 18.652.005zm.006-21.853l-18.652-.005.005-18.652 18.652.005zm.006-21.854l-18.652-.005.005-18.652 18.652.005z" fill="#f8e000"/><path d="M263.344 217.276a7.698 7.698 0 01-1.762-.212l-.002 8.093a7.636 7.636 0 011.762-.212c.493 0 .973.051 1.44.14l.002-7.949c-.467.089-.947.14-1.44.14zm-20.777 63.523v1.003l14.188.004a7.59 7.59 0 01-1.04-3.202l-13.147-.003zm18.998 4.547l-.002 8.093a7.63 7.63 0 011.762-.212c.493 0 .973.051 1.44.14l.002-7.949c-.467.089-.947.14-1.44.139a7.575 7.575 0 01-1.762-.211z" fill="#f8e000"/><path d="M283.083 169.171h3.446v311.872h-3.446zm-114.507-34.679l3.793 17.908c.356 1.681-1.339 3.414-3.97 3.971-2.412.511-4.519-.418-4.874-2.098l-.449-2.12c-1.996 3.554-4.843 7.059-9.888 8.127-5.189 1.099-10.152-1.057-11.561-7.709-1.781-8.406 4.668-12.215 14.755-14.352l2.996-.635-.201-.951c-.666-3.143-3.032-6.383-7.857-5.361-5.628 1.192-6.099 3.659-7.853 4.031-2.12.449-3.758-1.878-4.206-3.997-.635-2.997 5.39-6.64 10.58-7.74 11.404-2.414 17.172 3.543 18.735 10.926zm-8.159 7.99l-1.096.232c-4.897 1.038-9.393 2.525-8.526 6.618.573 2.705 2.516 3.591 4.71 3.127 2.996-.635 5.996-4.86 5.237-8.441zm18.078-42.626l4.754 22.439c.931-3.176 3.648-6.576 8.179-7.536 7.163-1.517 14.435 3.968 16.153 12.081l1.269 5.994c1.657 7.821-2.82 16.253-9.617 17.693-4.606.975-9.287-.935-11.383-3.622l.449 2.12c.31 1.462-1.266 3.399-3.605 3.894-2.705.573-4.93-.559-5.24-2.021l-10.388-49.045c-.372-1.755 1.281-3.326 3.985-3.899 2.633-.557 5.073.148 5.444 1.902zm19.658 28.982c-.697-3.289-4.244-5.975-7.826-5.216-3.143.665-5.979 3.863-5.112 7.956l1.548 7.309c.325 1.535 3.997 4.805 7.724 4.016 3.509-.743 5.647-4.709 4.935-8.072zm15.591 2.959l-1.239-5.847c-1.781-8.407 1.577-15.99 12.614-18.328 6.871-1.455 12.298.373 12.902 3.224.372 1.754-.487 4.915-2.752 5.395-1.609.341-3.358-1.428-7.67-.514-4.97 1.053-6.564 3.987-5.666 8.226l1.239 5.847c.898 4.239 3.544 6.275 8.587 5.207 4.386-.929 5.018-3.354 6.845-3.741 2.558-.542 4.578 1.779 4.965 3.607.62 2.923-3.92 7.092-10.791 8.547-11.036 2.339-17.222-3.071-19.034-11.623zm125.352 69.219c8.667 0 16.736 5.678 16.736 15.167 0 16.138-23.685 21.368-23.685 29.139v1.793h20.771c1.645 0 3.064 1.943 3.064 4.184 0 2.242-1.42 4.334-3.064 4.334H326.32c-1.719 0-4.259-1.195-4.259-3.063v-7.248c0-11.954 24.058-18.305 24.058-28.839 0-3.064-2.018-6.65-6.949-6.65-3.661 0-6.649 1.943-6.649 6.575 0 1.793-1.868 3.586-5.081 3.586-2.54 0-4.408-1.195-4.408-5.23.001-8.519 7.771-13.748 16.064-13.748zm90.544 38.478v-1.42c0-5.529-3.437-7.098-8.219-7.098-2.167 0-2.914-1.868-2.914-3.81 0-1.868.747-3.81 2.914-3.81 3.735 0 6.873-.896 6.873-7.322 0-4.931-2.54-6.575-6.574-6.575-4.857 0-6.65 2.017-6.65 5.006 0 2.242-1.045 3.736-4.632 3.736-4.334 0-5.006-1.046-5.006-4.184 0-5.305 3.735-13 16.362-13 9.04 0 15.765 3.437 15.765 13.374 0 5.903-2.167 10.684-5.827 12.402 4.408 1.719 7.621 5.081 7.621 11.282v1.42c0 12.029-8.069 16.587-17.931 16.587-12.253 0-17.184-7.546-17.184-13.598 0-2.989 1.269-3.81 4.632-3.81 3.96 0 5.006 1.046 5.006 3.437 0 3.362 2.989 5.454 7.771 5.454 5.602-.002 7.993-2.393 7.993-8.071zm-53.378 4.349v-7.994h-7.994c-1.794 0-2.989-1.569-2.989-3.96 0-2.241 1.195-4.034 2.989-4.034h7.994v-7.92c0-1.569 1.794-3.063 4.035-3.063 2.391 0 3.959 1.494 3.959 3.063v7.92h7.92c1.569 0 3.138 1.793 3.138 4.034 0 2.391-1.57 3.96-3.138 3.96h-7.92v7.994c0 1.793-1.569 2.989-3.959 2.989-2.242 0-4.035-1.196-4.035-2.989z" fill="#ff5551"/></svg>