<svg height="512" viewBox="0 0 507.582 507.582" width="512" xmlns="http://www.w3.org/2000/svg"><path d="M507.582 253.791c0 92.132-49.213 172.77-122.786 217.061-38.085 22.927-82.697 23.675-130.389 23.675-139.824 0-234.755-100.911-234.755-240.736 0-63.743 5.138-121.985 44.021-166.493C110.083 34.175 178.325.616 254.406.616c139.826.001 253.176 113.351 253.176 253.175z" fill="#82cd64"/><path d="M199.259 275.722l-18.854 11.031c-10.689 6.254-24.395 2.945-31.091-7.473l-.223-.348c-5.844-9.125-4.536-21.094 3.126-28.756l131.611-131.611c7.291-7.291 7.291-19.111 0-26.402l-42.282-42.282-83.585 83.585c-18.504 18.504-49.924 3.073-46.631-22.887.064-.504.129-1.009.197-1.513 3.566-26.821-30.038-42.135-47.842-21.76C25.071 131.494 1.568 189.22 1.237 252.435c-.735 140.034 113.135 254.531 253.172 254.53 47.693 0 92.302-13.19 130.384-36.12 35.247-21.224 20.127-75.218-21.016-75.013a256.378 256.378 0 01-14.061-.314c-26.757-1.331-25.592-41.332 1.198-41.332h108.39c13.731 0 24.863-11.131 24.863-24.863v-53.602H199.259z" fill="#20b7a1"/><path d="M19.653 301.024l75.158-19.675 21.045-76.528-76.528 21.045z" fill="#fff"/><path d="M27.508 271.019l-7.855 30.005 30.005-7.855z" fill="#ffc305"/><path d="M42.51 286.021l-22.857 15.003 30.005-7.855zM287.039 70.657l-46.251-46.251-146.36 146.36-38.186 38.186-16.914 16.914 21.457-2.936-2.936 21.457 21.442-2.951-2.953 21.439 21.438-2.954 26.982-19.662z" fill="#f8e000"/><path d="M94.811 281.349l2.965-21.428L287.039 70.657l9.232 9.232zm-15.52-39.913L268.554 52.172l-8.821-8.821-201.46 201.46z" fill="#ffc305"/><path d="M131.445 289.479l67.057 39.233 68.995-39.233-68.995-39.232z" fill="#fff"/><path d="M158.216 273.817l-26.771 15.662 26.771 15.663z" fill="#e20a62"/><path d="M158.216 293.957l-26.771-4.478 26.771 15.663zm57.535 21.699l-2.028 1.535h269.686v-66.944H198.502l17.249 13.096-17.249 13.096 17.249 13.076-17.249 13.071z" fill="#ff5551"/><path d="M198.502 328.712l17.249-13.056h267.658v13.056zm17.249-39.197h267.658V277.04H198.502z" fill="#e20a62"/><path d="M351.965 412.925l-67.058 39.232-68.994-39.232 68.994-39.233z" fill="#fff"/><path d="M325.194 397.262l26.771 15.663-26.771 15.663z" fill="#2896ff"/><path d="M325.194 397.262l26.771 15.663-26.771-6.598zm-57.535-10.473l17.249-13.096H.001v67.9h270.95l-3.291-2.491 17.249-13.07-17.249-13.072 17.249-13.075z" fill="#6ee1ff"/><path d="M284.907 452.157l-17.248-13.055H0v13.055zm-17.248-39.197H0v-12.475h284.907z" fill="#2896ff"/></svg>